<svg xmlns="http://www.w3.org/2000/svg" viewBox="119 79 272 353" width="272" height="353"><metadata><rdf:RDF xmlns:rdf="http://www.w3.org/1999/02/22-rdf-syntax-ns#" xmlns:dc="http://purl.org/dc/elements/1.1/"><rdf:Description><dc:creator>RealFaviconGenerator</dc:creator><dc:source>https://realfavicongenerator.net</dc:source></rdf:Description></rdf:RDF></metadata><rect x="119" y="206" width="273" height="212" fill="#FFE870" fill-opacity="0.15"></rect><rect x="243" y="79" width="13" height="11" fill="#BCBCBC"></rect><rect x="256" y="79" width="13" height="11" fill="#909090"></rect><polygon points="120,90 256,90 256,206 119,206" fill="#F67716"></polygon><polygon points="256,90 391,90 392,206 256,206" fill="#C56518"></polygon><rect x="228" y="207" width="28" height="21" fill="#DED860"></rect><rect x="256" y="207" width="28" height="21" fill="#C0BA50"></rect><rect x="247" y="228" width="9" height="56" fill="#DED860"></rect><rect x="256" y="228" width="10" height="56" fill="#C0BA50"></rect><rect x="247" y="284" width="9" height="34" fill="#C6C2A8"></rect><rect x="256" y="284" width="10" height="34" fill="#A6A178"></rect><rect x="247" y="318" width="9" height="100" fill="#BCBCBC"></rect><rect x="256" y="318" width="10" height="100" fill="#909090"></rect><rect x="176" y="418" width="80" height="15" fill="#BCBCBC"></rect><rect x="256" y="418" width="80" height="15" fill="#909090"></rect></svg>