<svg version="1.1" viewBox="0.0 0.0 415.76115485564304 278.8031496062992" fill="none" stroke="none" stroke-linecap="square" stroke-miterlimit="10" xmlns:xlink="http://www.w3.org/1999/xlink" xmlns="http://www.w3.org/2000/svg"><clipPath id="p.0"><path d="m0 0l415.76117 0l0 278.80316l-415.76117 0l0 -278.80316z" clip-rule="nonzero"/></clipPath><g clip-path="url(#p.0)"><path fill="#000000" fill-opacity="0.0" d="m0 0l415.76117 0l0 278.80316l-415.76117 0z" fill-rule="evenodd"/><path fill="#1b1b1e" d="m0 0l415.74802 0l0 278.80316l-415.74802 0z" fill-rule="evenodd"/><path fill="#000000" fill-opacity="0.0" d="m0 273.28348l423.55905 -117.85828" fill-rule="evenodd"/><path stroke="#93c47d" stroke-width="4.0" stroke-linejoin="round" stroke-linecap="butt" stroke-dasharray="32.0,12.0" d="m0 273.28348l423.55905 -117.85828" fill-rule="evenodd"/><path fill="#000000" fill-opacity="0.0" d="m129.0329 237.47255l134.96063 -37.70079" fill-rule="evenodd"/><path stroke="#38761d" stroke-width="4.0" stroke-linejoin="round" stroke-linecap="butt" d="m129.0329 237.47256l111.845566 -31.243683" fill-rule="evenodd"/><path fill="#38761d" stroke="#38761d" stroke-width="4.0" stroke-linecap="butt" d="m242.65604 212.5922l15.705505 -11.247147l-19.26065 -1.4794769z" fill-rule="evenodd"/><path fill="#000000" fill-opacity="0.0" d="m130.33333 238.85564l27.496063 -184.88188" fill-rule="evenodd"/><path stroke="#e06666" stroke-width="4.0" stroke-linejoin="round" stroke-linecap="butt" d="m130.33333 238.85564l23.96556 -161.14297" fill-rule="evenodd"/><path fill="#e06666" stroke="#e06666" stroke-width="4.0" stroke-linecap="butt" d="m160.83394 78.68456l-3.864746 -18.926815l-9.205353 16.982998z" fill-rule="evenodd"/><path fill="#000000" fill-opacity="0.0" d="m129.03412 233.257l65.10237 -18.047241" fill-rule="evenodd"/><path stroke="#ffaa00" stroke-width="4.0" stroke-linejoin="round" stroke-linecap="butt" d="m129.03412 233.25699l41.97458 -11.63591" fill-rule="evenodd"/><path fill="#ffaa00" stroke="#ffaa00" stroke-width="4.0" stroke-linecap="butt" d="m172.77365 227.9879l15.727737 -11.216034l-19.25766 -1.5176086z" fill-rule="evenodd"/><path fill="#000000" fill-opacity="0.0" d="m157.8084 56.330708l41.95276 165.70079" fill-rule="evenodd"/><path stroke="#ffffff" stroke-width="1.0" stroke-linejoin="round" stroke-linecap="butt" stroke-dasharray="1.0,3.0" d="m157.8084 56.330708l41.95276 165.70079" fill-rule="evenodd"/><path fill="#0000ff" d="m148.80971 54.688976l0 0c0 -4.9836082 4.040024 -9.023621 9.023621 -9.023621l0 0c2.393219 0 4.6884155 0.95069885 6.3806763 2.6429558c1.6922455 1.6922569 2.6429443 3.9874496 2.6429443 6.380665l0 0c0 4.9836082 -4.0400085 9.023621 -9.023621 9.023621l0 0c-4.983597 0 -9.023621 -4.0400124 -9.023621 -9.023621z" fill-rule="evenodd"/><path fill="#ff6600" d="m190.46504 216.20273l0 0c0 -4.983612 4.0400085 -9.023621 9.023621 -9.023621l0 0c2.3932037 0 4.6884003 0.95069885 6.380661 2.6429596c1.6922607 1.6922607 2.6429596 3.987442 2.6429596 6.380661l0 0c0 4.983612 -4.0400085 9.023621 -9.023621 9.023621l0 0c-4.983612 0 -9.023621 -4.0400085 -9.023621 -9.023621z" fill-rule="evenodd"/><path fill="#000000" fill-opacity="0.0" d="m233.71461 204.56747l195.96852 -46.110245l12.283447 51.905518l-195.9685 46.110245z" fill-rule="evenodd"/><path fill="#38761d" d="m260.7382 221.93852l2.302887 9.731232q0.33825684 1.4292755 0.6795654 1.7181549q0.35653687 0.28529358 1.1842346 0.18685913l0.11514282 0.486557l-5.064789 1.1917267l-0.3922119 -1.6573486q-0.6455078 1.2754974 -1.4277344 1.9732056q-0.7669983 0.6941223 -1.8773193 0.95536804q-1.0494537 0.24693298 -2.0218964 -0.1984253q-0.9760437 -0.46055603 -1.4549255 -1.2628326q-0.47888184 -0.8022766 -0.98983765 -2.9613953l-1.1694336 -4.941635q-0.33103943 -1.3988647 -0.6875763 -1.6841583q-0.34132385 -0.2888794 -1.1878357 -0.20205688l-0.11514282 -0.48657227l5.080017 -1.1952972l2.011444 8.499619q0.31304932 1.3228455 0.5282898 1.6895447q0.2116394 0.35150146 0.5321655 0.4847412q0.32055664 0.133255 0.6856079 0.04736328q0.47149658 -0.110946655 0.8093567 -0.44726562q0.44958496 -0.4749756 0.9465637 -1.6994781l-1.5760498 -6.6598206q-0.33102417 -1.3988647 -0.68756104 -1.6841583q-0.3413391 -0.2888794 -1.1878357 -0.20205688l-0.11514282 -0.486557l5.080017 -1.1953125z" fill-rule="nonzero"/><path fill="#000000" fill-opacity="0.0" d="m102.7173 46.11078l195.96849 -46.110237l12.283478 51.905514l-195.9685 46.110233z" fill-rule="evenodd"/><path fill="#e06666" d="m126.212166 69.40051l3.1277084 3.5819702q1.6328735 1.8790894 2.4084167 2.306572q0.43699646 0.21820831 1.0641785 0.08668518l0.11515808 0.48656464l-6.9356003 1.6319046l-0.11515045 -0.48656464q0.80693054 -0.25406647 0.95706177 -0.43386078q0.16174316 -0.19857025 0.10057068 -0.45706177q-0.08635712 -0.36492157 -0.70293427 -1.0705795l-1.5584564 -1.7681808l-0.59233093 1.5679703q-0.40769958 1.0590363 -0.4593811 1.2477646q-0.045295715 0.2835312 0.0014877319 0.48120117q0.07196045 0.30410004 0.24401855 0.4883423q0.18366241 0.16545105 0.42178345 0.2217865q0.24973297 0.03755188 0.82769775 -0.09844208l0.11515045 0.48656464l-4.8670883 1.145195l-0.11514282 -0.48656464q0.91257477 -0.21472168 1.5427017 -0.8766403q0.6417389 -0.6807022 1.5712891 -3.1306076l0.65921783 -1.7602844l-3.0685043 -3.4674911q-1.5252533 -1.6957321 -2.143135 -1.999794q-0.6214752 -0.3192749 -1.2746735 -0.2297821l-0.11514282 -0.48656464l6.8899612 -1.62117l0.11515045 0.48656464l-0.34622192 0.09751129l-0.6420746 0.40790558q-0.084877014 0.1162796 -0.034500122 0.32915497q0.046775818 0.19766235 0.17320251 0.39263916q0.052009583 0.08407593 0.53414917 0.62874603l1.4016113 1.5803604l0.33280182 -0.83273315q0.7192383 -1.7101974 0.5789032 -2.3031921q-0.06476593 -0.27368927 -0.3360901 -0.40247345q-0.27492523 -0.14398193 -0.9012985 -0.07685852l-0.11515045 -0.486557l4.4108047 -1.037838l0.11514282 0.48656082q-0.7989197 0.22008514 -1.4022217 0.859642q-0.5880966 0.6359787 -1.1500092 2.1967926l-0.8330612 2.3148422z" fill-rule="nonzero"/><path fill="#e06666" d="m135.4766 73.06346q0.57795715 -0.13598633 1.0705566 0.1815033q0.5042267 0.29869843 0.6373596 0.86129q0.13313293 0.5625839 -0.18037415 1.0697479q-0.30189514 0.48838043 -0.8798523 0.62436676q-0.5627594 0.13241577 -1.0517731 -0.16986847q-0.4925995 -0.31748962 -0.6257324 -0.88007355q-0.13313293 -0.5625839 0.1687622 -1.0509644q0.29829407 -0.5035858 0.86105347 -0.6360016zm2.1971283 3.7206802l1.5544586 6.5685806q0.20869446 0.88188934 0.46400452 1.0786438q0.2705078 0.1931839 0.8708801 0.08402252l0.07556152 0.31930542l-4.486847 1.0557251l-0.07556152 -0.31930542q0.5591583 -0.14761353 0.74575806 -0.512558q0.13572693 -0.24060822 -0.07296753 -1.1225052l-1.1442566 -4.8351974q-0.20869446 -0.881897 -0.47920227 -1.0750732q-0.2552948 -0.19675446 -0.8592682 -0.10280609l-0.07556152 -0.31930542l3.4830017 -0.8195267z" fill-rule="nonzero"/><path fill="#000000" fill-opacity="0.0" d="m119.82193 229.84206l91.46457 -21.51181l12.283463 51.905502l-91.46457 21.51181z" fill-rule="evenodd"/><path fill="#ffaa00" d="m134.21732 251.7263l3.3970337 -2.4040985l0.5019226 -0.11804199l0.67648315 2.858551q0.56159973 -1.8335266 1.3686981 -2.6975098q0.8035126 -0.87919617 1.8529968 -1.1260223q1.8251953 -0.4292755 3.3954468 0.7102356q1.9231873 1.4096375 2.5888672 4.22258q0.7484436 3.1626587 -0.57577515 5.6410217q-1.0875702 2.0535278 -3.3538513 2.5865479q-0.98864746 0.23254395 -1.7718964 0.11175537q-0.5791168 -0.07244873 -1.3887024 -0.50805664l0.8779907 3.7100525q0.2950592 1.2467957 0.5263214 1.5455322q0.23486328 0.31396484 0.6618805 0.42218018q0.42703247 0.10824585 1.430893 -0.12786865l0.11514282 0.48657227l-6.388199 1.5024414l-0.11514282 -0.48654175l0.33462524 -0.078704834q0.7336731 -0.15649414 1.1824493 -0.5670166q0.22257996 -0.21289062 0.2803192 -0.57958984q0.061325073 -0.35150146 -0.25172424 -1.6743469l-2.7275085 -11.525421q-0.28067017 -1.1859894 -0.46269226 -1.4802551q-0.18203735 -0.29426575 -0.46138 -0.3890686q-0.2677307 -0.113601685 -0.66319275 -0.020599365q-0.31941223 0.07513428 -0.7629547 0.37205505l-0.26805115 -0.38638306zm4.758957 1.1118622l1.075882 4.546295q0.35263062 1.4901123 0.58226013 1.917633q0.36602783 0.73254395 1.2364502 1.1538391q0.86680603 0.4060669 1.9619293 0.14849854q1.3384705 -0.31478882 1.9151306 -1.5419006q0.756073 -1.6224365 0.17674255 -4.070465q-0.66207886 -2.7977295 -2.2351074 -4.0168457q-1.0964508 -0.83361816 -2.2676086 -0.5581665q-0.63882446 0.1502533 -1.2020874 0.61979675q-0.41752625 0.338974 -1.2435913 1.8013153zm12.955093 -6.931366l0.6476898 2.736908q0.8733063 -3.094635 2.4855652 -3.4738312q0.730072 -0.17170715 1.3059387 0.15834045q0.59106445 0.32647705 0.73139954 0.9194641q0.12234497 0.51698303 -0.14112854 0.96417236q-0.25186157 0.42842102 -0.73857117 0.54289246q-0.45629883 0.10731506 -1.1574402 -0.20932007q-0.68592834 -0.3202057 -0.9597168 -0.2558136q-0.24334717 0.057235718 -0.45596313 0.3801117q-0.46365356 0.68688965 -0.80381775 2.0991516l1.3817444 5.838745q0.2374878 1.0035248 0.6031952 1.4632721q0.26887512 0.32199097 0.75231934 0.4650879q0.4950714 0.12435913 1.3316193 -0.072387695l0.11514282 0.48654175l-6.251297 1.4702759l-0.11515808 -0.48657227q0.92781067 -0.21820068 1.3157501 -0.6144104q0.28424072 -0.29159546 0.31318665 -0.77993774q0.006866455 -0.2423706 -0.24502563 -1.3067322l-1.1190643 -4.728775q-0.50375366 -2.128708 -0.6885681 -2.5025635q-0.17320251 -0.39265442 -0.4597473 -0.5178833q-0.2749176 -0.14399719 -0.62475586 -0.0617218q-0.4106598 0.096588135 -0.8810272 0.4158783l-0.2484436 -0.4391632l3.343399 -2.359375l0.56277466 -0.13235474zm11.464523 -2.6963806q2.768219 -0.651062 4.9378815 1.0537262q1.8543396 1.4579315 2.4048767 3.784317q0.38861084 1.6421356 -0.006500244 3.5007172q-0.37989807 1.8549957 -1.5588989 3.0472107q-1.1674042 1.1734314 -2.870926 1.5740814q-2.753006 0.64749146 -4.8870087 -1.1780396q-1.8231049 -1.52948 -2.3664398 -3.8254395q-0.395813 -1.6725616 0.04852295 -3.526657q0.44433594 -1.8541107 1.6109161 -2.96315q1.1665802 -1.1090393 2.6875763 -1.4667664zm-0.2055664 0.9632721q-0.69966125 0.16456604 -1.3137817 0.7584381q-0.6177063 0.57865906 -0.81051636 1.7315521q-0.19281006 1.1528931 0.19940186 2.8102417q0.6296997 2.6608887 2.1361694 4.345093q1.5180817 1.6654205 3.2520142 1.2576141q1.2928619 -0.3040619 1.877533 -1.5651703q0.58465576 -1.2611084 -0.027038574 -3.8459625q-0.7700348 -3.2538757 -2.6083527 -4.779785q-1.2452698 -1.0554352 -2.705429 -0.7120209zm9.447754 -9.878525q0.5779724 -0.13594055 1.0669861 0.16638184q0.48901367 0.3023224 0.6257477 0.8801117q0.1331482 0.56259155 -0.1687622 1.0509338q-0.3019104 0.4883423 -0.8798828 0.6242676q-0.56277466 0.13237 -1.0517883 -0.1699524q-0.48901367 -0.3023224 -0.6221466 -0.86491394q-0.13673401 -0.5777893 0.16516113 -1.0661316q0.3019104 -0.4883423 0.86468506 -0.620697zm2.6520233 6.1178284l2.9038086 12.270462q0.73765564 3.117035 -0.24099731 4.952347q-0.96343994 1.8317261 -3.0928345 2.33255q-1.2015991 0.28259277 -1.8839264 -0.022399902q-0.6975403 -0.30145264 -0.80908203 -0.77279663q-0.10795593 -0.45614624 0.1322937 -0.8657837q0.24024963 -0.40963745 0.68133545 -0.5133667q0.34983826 -0.08227539 0.75445557 -8.8500977E-4q0.25334167 0.052764893 1.0288849 0.48031616q0.7907715 0.4239807 1.2166443 0.32382202q0.31941223 -0.07513428 0.56243896 -0.40518188q0.26184082 -0.3183899 0.2619934 -0.92837524q0.015365601 -0.6135559 -0.4416046 -2.5446014l-2.0510254 -8.666885q-0.4749756 -2.0070648 -0.7333832 -2.556244q-0.19561768 -0.41947937 -0.43292236 -0.54022217q-0.23731995 -0.12075806 -0.58714294 -0.038482666q-0.38024902 0.08943176 -0.86582947 0.41230774l-0.29406738 -0.42843628l3.328186 -2.3557892l0.56277466 -0.13235474z" fill-rule="nonzero"/><path fill="#ffaa00" d="m189.40001 252.279l1.4608917 6.173233q0.2158966 0.912323 0.43717957 1.1010437q0.21769714 0.17352295 0.7492218 0.112701416l0.07197571 0.30410767l-3.2245178 0.75839233l-0.24829102 -1.0491638q-0.40444946 0.8013916 -0.89164734 1.2530518q-0.49079895 0.4364624 -1.1904602 0.6010132q-0.6692352 0.15740967 -1.2987518 -0.12792969q-0.61428833 -0.2889099 -0.9263458 -0.7933655q-0.29684448 -0.5080261 -0.620697 -1.8764648l-0.74124146 -3.132248q-0.21229553 -0.8970947 -0.42997742 -1.0706177q-0.22129822 -0.18873596 -0.75642395 -0.14312744l-0.07196045 -0.30410767l3.2093048 -0.7548065l1.2773895 5.3977966q0.1979065 0.8362732 0.3315277 1.061676q0.14883423 0.22180176 0.348526 0.31930542q0.21130371 0.078704834 0.43945312 0.025054932q0.30419922 -0.0715332 0.50798035 -0.2960205q0.28424072 -0.29159546 0.59742737 -1.0715027l-0.99671936 -4.211792q-0.21229553 -0.89711 -0.42999268 -1.0706177q-0.20606995 -0.19230652 -0.7564087 -0.14312744l-0.07196045 -0.30410767l3.2245178 -0.7583771z" fill-rule="nonzero"/><path fill="#ffaa00" d="m197.36266 246.61813q-1.7064362 2.4238129 -3.425171 2.8280334q-1.0190735 0.23968506 -1.8466339 -0.27194214q-0.8275604 -0.51161194 -1.0614471 -1.499939q-0.32385254 -1.368454 0.57662964 -2.7198944q0.9156952 -1.355011 4.40007 -4.0685577l-0.28427124 -1.2012024q-0.3166504 -1.3380432 -0.5515137 -1.6519928q-0.21965027 -0.31752014 -0.69148254 -0.4794159q-0.45663452 -0.16548157 -0.9585571 -0.047424316q-0.83654785 0.19674683 -1.282547 0.6868744q-0.2654419 0.30319214 -0.19346619 0.6072998q0.06477356 0.2736969 0.5081482 0.5867462q0.61265564 0.41770935 0.7350006 0.9346771q0.14753723 0.6233978 -0.21961975 1.1752472q-0.3555603 0.5330658 -1.1008453 0.7083435q-0.8061218 0.18959045 -1.4652405 -0.15296936q-0.64749146 -0.36135864 -0.8022156 -1.0151825q-0.2158966 -0.91230774 0.30467224 -1.9015045q0.5321655 -1.0079956 1.7206726 -1.753006q1.1884918 -0.7450104 2.5878143 -1.0741272q1.6883087 -0.39707947 2.8308716 0.08862305q1.1577606 0.48210144 1.6446533 1.250412q0.30845642 0.4892578 0.7618408 2.4050903l1.0866852 4.591919q0.19070435 0.8058777 0.30192566 1.0044403q0.11122131 0.19856262 0.25808716 0.2763672q0.15847778 0.059036255 0.3257904 0.019683838q0.31941223 -0.07511902 0.5576935 -0.62875366l0.45220947 0.2146759q-0.4157257 1.0929565 -0.99942017 1.6796722q-0.5684967 0.58314514 -1.4354553 0.78704834q-1.0038605 0.23609924 -1.6933899 -0.09931946q-0.6779175 -0.35420227 -1.0414886 -1.2799225zm-0.21949768 -0.9275055l-0.93556213 -3.9533234q-1.3087006 1.254837 -1.8281097 2.4524384q-0.32479858 0.7986908 -0.15927124 1.4981232q0.13673401 0.57780457 0.65174866 0.9221649q0.4021759 0.2745819 0.9801483 0.13865662q0.62361145 -0.14668274 1.2910461 -1.0580597z" fill-rule="nonzero"/></g></svg>